<svg width="50" height="50" viewBox="0 0 50 50" fill="none" xmlns="http://www.w3.org/2000/svg">
<path d="M18.7438 29.1354C18.7647 31.4354 16.9105 33.3187 14.6063 33.3333C12.3043 33.3521 10.4293 31.5 10.4168 29.2C10.3959 26.8979 12.248 25.0229 14.5459 25C16.8501 24.9854 18.7313 26.8396 18.7438 29.1354ZM16.7063 20.8312C14.4063 20.8479 12.523 18.9979 12.5084 16.6917C12.4897 14.3938 14.3355 12.5167 16.6418 12.5021C18.9376 12.4812 20.8251 14.3292 20.8334 16.6312C20.8584 18.9375 19.0001 20.8104 16.7063 20.8312ZM33.3334 12.4687C33.3418 14.7646 31.498 16.6521 29.198 16.6667C26.8938 16.6875 25.0147 14.8354 25.0001 12.5354C24.9772 10.2312 26.8293 8.35625 29.1355 8.3375C31.4293 8.325 33.3126 10.1729 33.3334 12.4687ZM8.33339 45.4833C17.8897 46.275 14.4668 36.125 23.3084 36.0312L27.1376 39.2271C28.0918 50.7625 13.9813 53.3354 8.33339 45.4833ZM37.6355 30.6604C40.6084 25.9958 49.8147 10.3521 49.8147 10.3521C50.5501 9.05417 48.9209 7.7 47.7834 8.65833C47.7834 8.65833 34.0918 20.5625 30.0522 24.3354C26.8605 27.3187 26.8459 28.6812 25.8126 33.6L29.3126 36.5167C33.9522 34.6104 35.2876 34.35 37.6355 30.6604ZM11.3397 40.6729C6.99797 36.8812 4.21464 31.3417 4.16672 25.1583C4.07505 13.6792 13.3459 4.2625 24.8334 4.16875C32.8293 4.125 38.3313 8.1375 38.3668 11.35L41.8313 8.31667C39.7272 3.68542 33.1188 -0.110417 24.798 -2.77767e-07C11.0001 0.114583 -0.10828 11.3875 5.32718e-05 25.1917C0.0479699 31.2583 2.2563 36.7958 5.8813 41.0979C7.87714 42.1229 10.3043 41.7833 11.3397 40.6729ZM38.0001 36.7021C40.2063 40.8062 35.1855 43.7229 30.6147 45.0187C29.9813 46.9187 28.9418 48.6042 27.7522 49.8333C38.7001 48.6021 46.6293 40.8667 40.8063 33.3979C39.8501 34.825 38.9376 35.8917 38.0001 36.7021Z" fill="#FEC600"/>
</svg>
