<svg width="150" height="141" viewBox="0 0 150 141" fill="none" xmlns="http://www.w3.org/2000/svg">
<path d="M94.4956 103.29C98.3622 101.582 121.94 88.793 118.833 86.1456C123.867 83.1092 128.678 79.8333 132.527 76.1125C134.347 74.5071 135.758 72.8037 136.198 71.1135C136.545 70.5394 135.962 70.2478 135.285 70.2336C134.405 69.7233 133.031 69.9518 131.617 70.213C129.851 70.3773 127.988 70.8751 126.142 71.4067C127.133 69.9405 127.13 68.6771 124.914 68.2955C123.253 68.5067 121.594 68.841 119.897 69.2752C120.844 68.49 121.761 67.7042 122.646 66.9065C125.158 64.6895 128.135 62.3927 128.61 59.999C128.839 59.4112 128.852 58.8413 128.572 58.4218C128.295 57.9465 127.382 57.9051 126.792 57.658C125.652 57.4888 124.049 58.0032 122.735 58.1211C121.273 58.4595 119.81 58.8538 118.357 59.2707C117.047 59.2769 115.785 59.2058 114.403 59.3558C109.611 59.8595 104.607 61.3426 99.601 63.1834C103.228 61.3809 106.816 59.5552 110.428 57.7189C115.651 55.0889 120.747 52.2438 125.879 49.4777C130.104 47.1623 134.513 44.9401 138.318 42.2022C140.335 40.9586 144.77 37.7755 142.626 37.0712C141.692 36.6269 140.391 36.7115 138.723 37.3251C137.145 37.7729 135.589 38.21 134.039 38.6583C130.152 39.9635 126.265 41.4475 122.407 43.0551C127.918 38.4076 133.284 33.2092 129.309 33.4281C123.872 33.9854 118.119 35.9 112.482 38.063C108.931 39.4311 105.428 40.9007 101.934 42.4489C101.486 42.5066 101.049 42.5869 100.606 42.6559C98.7021 42.8845 96.7148 43.4132 94.6955 44.053C96.2096 42.989 97.7467 41.9143 99.2609 40.8503C99.388 40.7635 99.515 40.6767 99.6421 40.5899C101.968 39.0509 111.597 32.7565 108.622 31.9453C106.808 30.9907 102.752 32.952 100.012 33.5432C96.4567 34.7211 92.9186 36.0559 89.4279 37.4923C89.1319 37.3967 88.8413 37.3124 88.5276 37.2387C88.5682 37.2061 88.5859 37.1841 88.6036 37.1621C90.0018 35.8497 91.3102 34.5243 92.7032 33.2006C92.825 33.1025 92.9239 33.0151 93.028 32.939C95.9652 30.4961 104.802 24.9565 101.858 24.2131C102.201 23.7507 102.572 23.2889 102.891 22.8372C104.756 20.7296 104.832 19.8144 101.542 20.1259C99.3301 20.2921 97.0765 20.8488 94.7663 21.5831C94.7963 21.5279 94.7982 21.472 94.8053 21.4274C94.7808 21.3151 94.6928 21.2462 94.5589 21.1987C93.3352 20.4912 91.4166 20.9878 89.4878 21.2829C87.2782 21.874 85.051 22.4871 82.8234 23.2791C82.2644 23.4575 81.7053 23.6359 81.141 23.803C66.6388 26.5971 43.1711 37.9466 30.1418 46.1712C22.3001 51.1502 15.7808 56.9282 8.81956 62.4175C6.49656 64.3814 3.80015 66.2033 1.57229 68.1915C0.225779 69.136 -0.518293 70.2944 -0.539371 71.2666C-0.400539 71.5042 -0.11171 71.6444 0.316568 71.6646C0.598263 71.8493 0.963011 71.9128 1.40368 71.8997C4.23831 71.6905 7.24339 70.7694 10.215 69.8365C10.4152 70.2655 10.3225 70.8449 10.0836 71.4101C10.0145 71.621 9.92771 71.854 9.8586 72.065C9.30078 73.5626 8.34782 75.2309 8.56413 76.5322C-1.81001 82.308 -12.1714 88.889 -6.14271 89.5403C-0.97797 89.3575 4.99715 87.3804 10.549 85.5734C16.8575 83.4132 15.6815 83.6458 25.7501 80.2673C24.3081 81.3663 22.8556 82.4428 21.3415 83.5068C20.8738 83.8212 20.4009 84.1244 19.9333 84.4389C16.5575 86.6602 12.8437 88.6957 10.2886 91.359C10.0869 91.8244 9.91333 92.2903 9.71158 92.7557C10.9481 93.251 12.1619 93.5782 14.3349 92.7292C15.8603 92.3474 17.3822 91.8984 18.8935 91.4269C18.1488 91.9256 17.4042 92.4243 16.67 92.9456C15.431 93.8812 14.347 94.9095 13.2806 95.9158C13.0219 96.7377 12.1477 97.7368 13.4536 97.8423C13.7089 97.9706 13.9943 98.0436 14.2745 98.1054C14.3216 98.3859 14.2946 98.6872 14.2395 98.9879C14.1635 99.0645 14.1158 99.1418 14.0451 99.2298C10.1067 101.741 5.89143 104.258 3.27743 107.334C3.14603 107.89 2.55071 108.649 2.72797 109.089C4.75996 110.272 8.3058 109.552 11.5324 108.926C14.3097 108.235 17.0802 107.41 19.842 106.506C19.0865 107.161 18.3874 107.817 17.9861 108.513C17.7701 109.067 17.5488 109.611 17.3275 110.154C18.2913 111.381 21.1634 110.894 23.5456 110.373C28.9893 108.933 34.379 107.078 39.7551 104.954C39.4966 105.597 39.2893 106.23 39.2124 106.843C39.4554 108.022 39.4073 109.296 38.9326 110.672C38.8418 111.195 38.4089 111.824 38.415 112.316C36.5553 113.417 34.7607 114.598 33.0771 115.838C31.0534 116.947 30.4838 118.12 30.0868 119.364C30.5731 119.508 31.0416 119.675 31.5279 119.819C37.9523 118.924 46.3478 115.791 54.896 111.967C54.4934 112.361 54.1473 112.756 53.9526 113.177C53.8498 113.555 53.6375 113.997 53.4305 114.451C51.858 115.57 50.4195 116.736 49.1799 118.03C46.4791 122.356 56.68 118.902 60.0588 117.944C71.8188 113.941 83.3637 108.939 94.4956 103.29Z" fill="#FFCA08" fill-opacity="0.7"/>
<path d="M21.0251 85C20.8751 85 20.8001 84.925 20.8001 84.775L20.8901 53.86C20.8901 53.74 20.9501 53.68 21.0701 53.68L29.4851 53.635C31.1351 53.605 32.6351 53.995 33.9851 54.805C35.3651 55.615 36.4601 56.71 37.2701 58.09C38.0801 59.44 38.4851 60.94 38.4851 62.59V75.505C38.4851 77.245 38.0651 78.835 37.2251 80.275C36.3851 81.685 35.2601 82.81 33.8501 83.65C32.4401 84.49 30.8501 84.925 29.0801 84.955L21.0251 85ZM26.2901 79.465H29.0801C30.1901 79.465 31.1201 79.075 31.8701 78.295C32.6501 77.515 33.0401 76.585 33.0401 75.505V62.545C33.0401 61.585 32.6801 60.76 31.9601 60.07C31.2701 59.35 30.4451 59.005 29.4851 59.035L26.3351 59.08L26.2901 79.465ZM49.252 85.45C47.632 85.45 46.147 85.045 44.797 84.235C43.477 83.395 42.412 82.3 41.602 80.95C40.792 79.57 40.387 78.055 40.387 76.405L40.432 62.14C40.432 60.49 40.822 58.99 41.602 57.64C42.412 56.29 43.492 55.21 44.842 54.4C46.192 53.59 47.662 53.185 49.252 53.185C50.872 53.185 52.342 53.59 53.662 54.4C54.982 55.21 56.032 56.29 56.812 57.64C57.622 58.99 58.027 60.49 58.027 62.14L58.072 76.405C58.072 78.055 57.667 79.57 56.857 80.95C56.077 82.3 55.012 83.395 53.662 84.235C52.342 85.045 50.872 85.45 49.252 85.45ZM49.252 80.005C50.152 80.005 50.932 79.645 51.592 78.925C52.282 78.175 52.627 77.335 52.627 76.405L52.582 62.14C52.582 61.15 52.267 60.31 51.637 59.62C51.007 58.93 50.212 58.585 49.252 58.585C48.322 58.585 47.527 58.93 46.867 59.62C46.207 60.28 45.877 61.12 45.877 62.14V76.405C45.877 77.395 46.207 78.25 46.867 78.97C47.527 79.66 48.322 80.005 49.252 80.005ZM61.8985 85C61.6585 85 61.5385 84.895 61.5385 84.685L61.4935 54.04C61.4935 53.8 61.6135 53.68 61.8535 53.68H65.9035L73.5085 71.41L73.2835 54.04C73.2835 53.8 73.4185 53.68 73.6885 53.68H78.1435C78.3235 53.68 78.4135 53.8 78.4135 54.04L78.4585 84.73C78.4585 84.91 78.3835 85 78.2335 85H74.2735L66.4885 68.44L66.8035 84.64C66.8035 84.88 66.6685 85 66.3985 85H61.8985ZM80.8375 84.775L86.4175 53.86C86.4475 53.74 86.5225 53.68 86.6425 53.68H93.1675C93.2875 53.68 93.3625 53.74 93.3925 53.86L98.7475 84.775C98.7775 84.925 98.7175 85 98.5675 85H93.5725C93.4525 85 93.3775 84.925 93.3475 84.775L92.8525 81.49H86.7325L86.2375 84.775C86.2075 84.925 86.1325 85 86.0125 85H81.0175C80.8975 85 80.8375 84.925 80.8375 84.775ZM87.6325 76.675H91.9525L90.1075 64.03L89.8375 62.365L89.6575 64.03L87.6325 76.675ZM101.752 85C101.632 85 101.572 84.925 101.572 84.775L101.662 53.86C101.662 53.74 101.722 53.68 101.842 53.68H110.932C112.552 53.68 114.037 54.085 115.387 54.895C116.767 55.675 117.862 56.74 118.672 58.09C119.482 59.41 119.887 60.91 119.887 62.59C119.887 63.7 119.722 64.705 119.392 65.605C119.062 66.475 118.672 67.225 118.222 67.855C117.772 68.455 117.367 68.905 117.007 69.205C118.627 71.005 119.437 73.12 119.437 75.55L119.482 84.775C119.482 84.925 119.407 85 119.257 85H114.172C114.052 85 113.992 84.955 113.992 84.865V75.55C113.992 74.47 113.602 73.54 112.822 72.76C112.072 71.95 111.142 71.545 110.032 71.545H107.062L107.017 84.775C107.017 84.925 106.957 85 106.837 85H101.752ZM107.062 66.145H110.932C111.862 66.145 112.687 65.8 113.407 65.11C114.127 64.42 114.487 63.58 114.487 62.59C114.487 61.63 114.127 60.805 113.407 60.115C112.717 59.425 111.892 59.08 110.932 59.08H107.062V66.145Z" fill="black"/>
</svg>
