<svg width="178" height="141" viewBox="0 0 178 141" fill="none" xmlns="http://www.w3.org/2000/svg">
<path d="M112.495 103.29C116.361 101.582 139.939 88.793 136.833 86.1456C141.867 83.1092 146.677 79.8333 150.526 76.1125C152.346 74.5071 153.757 72.8037 154.198 71.1135C154.544 70.5394 153.961 70.2478 153.284 70.2336C152.404 69.7233 151.03 69.9518 149.616 70.213C147.85 70.3773 145.988 70.8751 144.141 71.4067C145.133 69.9405 145.13 68.6771 142.913 68.2955C141.252 68.5067 139.593 68.841 137.897 69.2752C138.843 68.49 139.761 67.7042 140.645 66.9065C143.157 64.6895 146.135 62.3927 146.609 59.999C146.838 59.4112 146.851 58.8413 146.572 58.4218C146.294 57.9465 145.381 57.9051 144.791 57.658C143.651 57.4888 142.048 58.0032 140.734 58.1211C139.273 58.4595 137.809 58.8538 136.356 59.2707C135.046 59.2769 133.784 59.2058 132.402 59.3558C127.611 59.8595 122.606 61.3426 117.6 63.1834C121.227 61.3809 124.816 59.5552 128.427 57.7189C133.651 55.0889 138.746 52.2438 143.878 49.4777C148.104 47.1623 152.512 44.9401 156.317 42.2022C158.334 40.9586 162.769 37.7755 160.625 37.0712C159.692 36.6269 158.391 36.7115 156.722 37.3251C155.144 37.7729 153.588 38.21 152.038 38.6583C148.151 39.9635 144.264 41.4475 140.406 43.0551C145.917 38.4076 151.283 33.2092 147.308 33.4281C141.871 33.9854 136.118 35.9 130.481 38.063C126.931 39.4311 123.427 40.9007 119.933 42.4489C119.485 42.5066 119.048 42.5869 118.605 42.6559C116.701 42.8845 114.714 43.4132 112.695 44.053C114.209 42.989 115.746 41.9143 117.26 40.8503C117.387 40.7635 117.514 40.6767 117.641 40.5899C119.967 39.0509 129.597 32.7565 126.621 31.9453C124.807 30.9907 120.752 32.952 118.011 33.5432C114.456 34.7211 110.918 36.0559 107.427 37.4923C107.131 37.3967 106.841 37.3124 106.527 37.2387C106.568 37.2061 106.585 37.1841 106.603 37.1621C108.001 35.8497 109.31 34.5243 110.703 33.2006C110.824 33.1025 110.923 33.0151 111.027 32.939C113.964 30.4961 122.801 24.9565 119.857 24.2131C120.2 23.7507 120.571 23.2889 120.891 22.8372C122.756 20.7296 122.831 19.8144 119.542 20.1259C117.329 20.2921 115.076 20.8488 112.766 21.5831C112.796 21.5279 112.797 21.472 112.805 21.4274C112.78 21.3151 112.692 21.2462 112.558 21.1987C111.334 20.4912 109.416 20.9878 107.487 21.2829C105.278 21.874 103.05 22.4871 100.823 23.2791C100.264 23.4575 99.7046 23.6359 99.1403 23.803C84.6381 26.5971 61.1704 37.9466 48.1411 46.1712C40.2994 51.1502 33.7801 56.9282 26.8189 62.4175C24.4959 64.3814 21.7994 66.2033 19.5716 68.1915C18.2251 69.136 17.481 70.2944 17.4599 71.2666C17.5988 71.5042 17.8876 71.6444 18.3159 71.6646C18.5976 71.8493 18.9623 71.9128 19.403 71.8997C22.2376 71.6905 25.2427 70.7694 28.2143 69.8365C28.4145 70.2655 28.3218 70.8449 28.0829 71.4101C28.0138 71.621 27.927 71.854 27.8579 72.065C27.3001 73.5626 26.3471 75.2309 26.5634 76.5322C16.1893 82.308 5.82786 88.889 11.8566 89.5403C17.0213 89.3575 22.9965 87.3804 28.5483 85.5734C34.8568 83.4132 33.6808 83.6458 43.7494 80.2673C42.3074 81.3663 40.8549 82.4428 39.3407 83.5068C38.8731 83.8212 38.4002 84.1244 37.9326 84.4389C34.5568 86.6602 30.843 88.6957 28.2879 91.359C28.0862 91.8244 27.9126 92.2903 27.7109 92.7557C28.9474 93.251 30.1612 93.5782 32.3342 92.7292C33.8596 92.3474 35.3815 91.8984 36.8928 91.4269C36.1481 91.9256 35.4035 92.4243 34.6693 92.9456C33.4303 93.8812 32.3463 94.9095 31.2799 95.9158C31.0212 96.7377 30.147 97.7368 31.4529 97.8423C31.7082 97.9706 31.9936 98.0436 32.2738 98.1054C32.3209 98.3859 32.2939 98.6872 32.2388 98.9879C32.1628 99.0645 32.1151 99.1418 32.0444 99.2298C28.106 101.741 23.8907 104.258 21.2767 107.334C21.1453 107.89 20.55 108.649 20.7273 109.089C22.7593 110.272 26.3051 109.552 29.5317 108.926C32.309 108.235 35.0795 107.41 37.8413 106.506C37.0858 107.161 36.3867 107.817 35.9854 108.513C35.7694 109.067 35.5481 109.611 35.3268 110.154C36.2906 111.381 39.1627 110.894 41.5449 110.373C46.9886 108.933 52.3783 107.078 57.7544 104.954C57.4959 105.597 57.2886 106.23 57.2117 106.843C57.4547 108.022 57.4066 109.296 56.9319 110.672C56.8411 111.195 56.4081 111.824 56.4143 112.316C54.5546 113.417 52.76 114.598 51.0764 115.838C49.0527 116.947 48.4831 118.12 48.0861 119.364C48.5724 119.508 49.0409 119.675 49.5272 119.819C55.9516 118.924 64.3471 115.791 72.8953 111.967C72.4927 112.361 72.1466 112.756 71.9519 113.177C71.8491 113.555 71.6368 113.997 71.4298 114.451C69.8573 115.57 68.4188 116.736 67.1792 118.03C64.4784 122.356 74.6793 118.902 78.0581 117.944C89.8181 113.941 101.363 108.939 112.495 103.29Z" fill="#FFCA08" fill-opacity="0.7"/>
<path d="M39.0244 85C38.8744 85 38.7994 84.925 38.7994 84.775L38.8894 53.86C38.8894 53.74 38.9494 53.68 39.0694 53.68L47.4844 53.635C49.1344 53.605 50.6344 53.995 51.9844 54.805C53.3644 55.615 54.4594 56.71 55.2694 58.09C56.0794 59.44 56.4844 60.94 56.4844 62.59V75.505C56.4844 77.245 56.0644 78.835 55.2244 80.275C54.3844 81.685 53.2594 82.81 51.8494 83.65C50.4394 84.49 48.8494 84.925 47.0794 84.955L39.0244 85ZM44.2894 79.465H47.0794C48.1894 79.465 49.1194 79.075 49.8694 78.295C50.6494 77.515 51.0394 76.585 51.0394 75.505V62.545C51.0394 61.585 50.6794 60.76 49.9594 60.07C49.2694 59.35 48.4444 59.005 47.4844 59.035L44.3344 59.08L44.2894 79.465ZM67.2513 85.45C65.6313 85.45 64.1463 85.045 62.7963 84.235C61.4763 83.395 60.4113 82.3 59.6013 80.95C58.7913 79.57 58.3863 78.055 58.3863 76.405L58.4313 62.14C58.4313 60.49 58.8213 58.99 59.6013 57.64C60.4113 56.29 61.4913 55.21 62.8413 54.4C64.1913 53.59 65.6613 53.185 67.2513 53.185C68.8713 53.185 70.3413 53.59 71.6613 54.4C72.9813 55.21 74.0313 56.29 74.8113 57.64C75.6213 58.99 76.0263 60.49 76.0263 62.14L76.0713 76.405C76.0713 78.055 75.6663 79.57 74.8563 80.95C74.0763 82.3 73.0113 83.395 71.6613 84.235C70.3413 85.045 68.8713 85.45 67.2513 85.45ZM67.2513 80.005C68.1513 80.005 68.9313 79.645 69.5913 78.925C70.2813 78.175 70.6263 77.335 70.6263 76.405L70.5813 62.14C70.5813 61.15 70.2663 60.31 69.6363 59.62C69.0063 58.93 68.2113 58.585 67.2513 58.585C66.3213 58.585 65.5263 58.93 64.8663 59.62C64.2063 60.28 63.8763 61.12 63.8763 62.14V76.405C63.8763 77.395 64.2063 78.25 64.8663 78.97C65.5263 79.66 66.3213 80.005 67.2513 80.005ZM79.8977 85C79.6577 85 79.5377 84.895 79.5377 84.685L79.4927 54.04C79.4927 53.8 79.6127 53.68 79.8527 53.68H83.9027L91.5077 71.41L91.2827 54.04C91.2827 53.8 91.4177 53.68 91.6877 53.68H96.1427C96.3227 53.68 96.4127 53.8 96.4127 54.04L96.4577 84.73C96.4577 84.91 96.3827 85 96.2327 85H92.2727L84.4877 68.44L84.8027 84.64C84.8027 84.88 84.6677 85 84.3977 85H79.8977ZM98.8367 84.775L104.417 53.86C104.447 53.74 104.522 53.68 104.642 53.68H111.167C111.287 53.68 111.362 53.74 111.392 53.86L116.747 84.775C116.777 84.925 116.717 85 116.567 85H111.572C111.452 85 111.377 84.925 111.347 84.775L110.852 81.49H104.732L104.237 84.775C104.207 84.925 104.132 85 104.012 85H99.0167C98.8967 85 98.8367 84.925 98.8367 84.775ZM105.632 76.675H109.952L108.107 64.03L107.837 62.365L107.657 64.03L105.632 76.675ZM119.751 85C119.631 85 119.571 84.925 119.571 84.775L119.661 53.86C119.661 53.74 119.721 53.68 119.841 53.68H128.931C130.551 53.68 132.036 54.085 133.386 54.895C134.766 55.675 135.861 56.74 136.671 58.09C137.481 59.41 137.886 60.91 137.886 62.59C137.886 63.7 137.721 64.705 137.391 65.605C137.061 66.475 136.671 67.225 136.221 67.855C135.771 68.455 135.366 68.905 135.006 69.205C136.626 71.005 137.436 73.12 137.436 75.55L137.481 84.775C137.481 84.925 137.406 85 137.256 85H132.171C132.051 85 131.991 84.955 131.991 84.865V75.55C131.991 74.47 131.601 73.54 130.821 72.76C130.071 71.95 129.141 71.545 128.031 71.545H125.061L125.016 84.775C125.016 84.925 124.956 85 124.836 85H119.751ZM125.061 66.145H128.931C129.861 66.145 130.686 65.8 131.406 65.11C132.126 64.42 132.486 63.58 132.486 62.59C132.486 61.63 132.126 60.805 131.406 60.115C130.716 59.425 129.891 59.08 128.931 59.08H125.061V66.145Z" fill="white"/>
</svg>
